<svg xmlns="http://www.w3.org/2000/svg" version="1.1" xmlns:xlink="http://www.w3.org/1999/xlink" xmlns:svgjs="http://svgjs.dev/svgjs" width="1500" height="1687" viewBox="0 0 1500 1687"><g transform="matrix(1,0,0,1,0.00011015625000254659,0)"><svg viewBox="0 0 320 360" data-background-color="#e9efe7" preserveAspectRatio="xMidYMid meet" height="1687" width="1500" xmlns="http://www.w3.org/2000/svg" xmlns:xlink="http://www.w3.org/1999/xlink"><g id="tight-bounds" transform="matrix(1,0,0,1,0.000023499999997511622,0)"><svg viewBox="0 0 320 360" height="360" width="320"><g><svg></svg></g><g><svg viewBox="0 0 320 360" height="360" width="320"><g><path transform="translate(-74.99272,-51.79039) scale(4.65793,4.65793)" d="M20.6 59.9l0.8 1-0.4-1.3c-0.1-0.6-0.8 0.1-0.4 0.3M21.5 59.3c0.3 0.5 0.6 1 0.6 1.5 0 0.7 0.6 1 1.1 1.2-0.7-0.8-1.1-3-1.7-2.7M59.9 16.9c1.7 0 3.3-0.2 5.1 0.2 4.4 1.1 8.1 3.3 10.6 6.4l7 11.2c0.3 2.8 0.9 5.9 0.8 9.3 0.7 0 0.6-1 1.4-1.2-0.8 2-1.2 4.5-1.4 7.4-0.5-1.6 0-4 0.1-5.3-0.7 1.1-1.1 0.3-1.1-0.2 0.1-0.8-0.3-0.7-0.6-1-1.1-1-1.8-2.1-2.6-3.8 0.5-1.3 0.6-3.2-1-4.2-0.5-0.3-1.1-0.8-1.4-1.6-0.4-1.1-1.1-2.4-0.9-4.1 0.1-0.5-1.5 1.1-2.4 0.4-3.9-2.7-7.8-5.8-12.5-8.4-2.5 0-4.3-0.9-5.2-2-0.8-1-0.2-2.3 1-2.4 0.7 0 1.5-0.2 2.1 0.2 0.1-0.4 0.5-0.9 1-0.9M50 14.6l0.2 0.1c1 0.2 1.5 1.6 2.6 1.1 0 0.7 0.1 1.4-0.1 1.9-0.3 0.8-1.2 0.8-1.9 0.8-6.7-0.4-10.6 2.4-14.7 4.8-1.1 0.7-2.3 1.2-3.2 2.1-4.3 4-9 7.7-10.1 15.1l-0.9 8.2c-0.1 0.9-1.1 1.8-0.9 2.9l0.7 4.9c-0.7-0.7-1.1 0.2-0.9 0.6 0.1 0.3 0.5 1.3 1.1 0.4 0.8 1.5 1.6 4.4 2.7 5.7 3.4 4 7.8 7.6 11.4 11.2 0.9-0.2 1.6-0.2 1.8-0.8 0.3 0.6-0.3 1.2-0.8 1.3 1.6 1 3.4 1.9 5.8 2.1 3.1 0.2 6 0.7 8.7 1.4 1.4-0.4 2.8-0.6 4.3-0.7 0.5 0 0.8-0.8 1.4-1l0.1-1c0.6 0.9 0.5-0.3 0.1-0.9 0.7 0.6 0.9 1.1 1.2 1.5 0-0.3 0.8-1.4 0.8-0.1l0.2-1.3c0.3-0.2 0.4 1.1 0.7 0.2 0.3-0.9 0.9-0.2 1.5-0.5-0.2 0.4-0.1 1.2 0.6 0.7l0.8-0.7c0.5 1.2 1.3 0.7 1.7 0.5 4.4-2.8 8.8-6.1 13-9.4l-0.1 1.3 0.5-1.6c0.5 0.5 0.9 0.1 1.1-0.2 0.6-1 1.4-2 2.7-2.9-1.6 4.3-3.5 7.7-5.9 10.5l-1 1.2c0 0.7-0.2 1.6-1 1.7-0.4 0.1-1.2-0.2-1.8 0.4-0.3 0.4 0.7 1.2-0.1 0.6-0.7-0.5-1.4 0-2.2 0.2-0.6 0.2 0.4 0.8 0.6 1.2 0.2 0.4 0.4 0.8 0.3 1.3l-1.1-1.2c-1.3 0.7-2.1 2-3.2 3-0.5 0.4-0.3 1.1-0.3 1.7-0.7 0-1.5-0.2-1.9 0.2-0.3 0.4-0.2 1-0.2 1.6-1-0.1-1.1-1.6-2-1.3-0.9 0.2-1.9 0.3-2.7 0.8 0.6 1.2-1 0.5-0.8 0.7-1.5-0.9-2.8-1.6-4.4-1-3.4-1.1-7.6-0.6-10.7-0.2 0-0.5 0.1-1-0.1-1.1-0.2 0.5-0.8 0.3-0.7 0.3-1.9-1.3-3.8-2.1-5.8-3.2-1.8 0.2-3.5-0.7-4-1.2-1.4-1.3-3-0.6-4.3-0.9-2.8-0.7-3.8-3.6-4.1-5.6-0.2-1-1-1.4-1.3-1.3-1.3-4.2-3.3-8-4.9-11.9-0.4-1-0.3-2-0.3-3.1 0.5 0.2 1 0.1 0.9-0.6-0.5-3.3-1.7-5.8-3-8.2 0.7-3.4 0.8-7.4 2.4-10.4 1.4-2.7 4-4.1 5.8-6.4 0.6-0.8 0.6-1.9 1.2-2.6 2-2 4-4.1 6.2-5.9 1-0.8 2.2 0 3.7-0.3 0.5-1.8 2.5-3.4 4.4-2.9 0.8 0.2 2.4-1.9 2.9-2.1 0.8-0.3 0.4 0.8 0.4 1.5 1.9-1.5 4.5-2.3 6.9-3.2" fill="#a020f0" fill-rule="nonzero" stroke="none" stroke-width="1" stroke-linecap="butt" stroke-linejoin="miter" stroke-miterlimit="10" stroke-dasharray="" stroke-dashoffset="0" font-family="none" font-weight="none" font-size="none" text-anchor="none" style="mix-blend-mode: normal" data-fill-palette-color="tertiary"></path></g><g transform="matrix(1,0,0,1,64,93.65787874626972)"><svg viewBox="0 0 192 172.68424250746057" height="172.68424250746057" width="192"><g><svg viewBox="0 0 192 172.68424250746057" height="172.68424250746057" width="192"><g><svg viewBox="0 0 192 172.68424250746057" height="172.68424250746057" width="192"><g transform="matrix(1,0,0,1,0,96.4387806128475)"><svg viewBox="0 0 192 76.24546189461306" height="76.24546189461306" width="192"><g id="textblocktransform"><svg viewBox="0 0 192 76.24546189461306" height="76.24546189461306" width="192" id="textblock"><g><svg viewBox="0 0 192 76.24546189461306" height="76.24546189461306" width="192"><g transform="matrix(1,0,0,1,0,0)"><svg width="192" viewBox="-2.49 -41.36 120.78999999999999 47.9740625" height="76.24546189461306" data-palette-color="#a020f0"><path d="M3.66-27.64L3.66-27.64Q3.32-29.74 2.83-31.2 2.34-32.67 1.61-33.67 0.88-34.67-0.12-35.28-1.12-35.89-2.49-36.18L-2.49-36.18-2.29-37.4Q-1.56-37.11-0.49-36.69 0.59-36.28 1.98-35.96 3.37-35.64 5.05-35.57 6.74-35.5 8.74-35.94L8.74-35.94Q8.54-34.67 8.37-32.86 8.2-31.05 8.11-29.35L8.11-29.35Q8.89-30.96 9.99-32.54 11.08-34.13 12.52-35.33 13.96-36.52 15.75-37.11 17.53-37.7 19.68-37.35L19.68-37.35Q21.34-37.06 22.71-35.86 24.07-34.67 25-32.79 25.93-30.91 26.32-28.47 26.71-26.03 26.46-23.34L26.46-23.34Q26.17-20.61 25.44-18.16 24.71-15.72 23.46-13.94 22.22-12.16 20.43-11.16 18.65-10.16 16.31-10.4L16.31-10.4Q14.75-10.55 13.4-11.16 12.06-11.77 10.94-12.72 9.81-13.67 8.94-14.89 8.06-16.11 7.42-17.43L7.42-17.43Q7.42-16.16 7.47-14.58 7.52-12.99 7.62-11.35 7.71-9.72 7.86-8.08 8.01-6.45 8.2-5.08L8.2-5.08Q8.45-3.42 8.94-2.47 9.42-1.51 10.01-1 10.6-0.49 11.18-0.29 11.77-0.1 12.21 0.05L12.21 0.05 12.01 0.98Q10.4 0.63 8.72 0.54 7.03 0.44 5.49 0.51 3.96 0.59 2.66 0.83 1.37 1.07 0.59 1.42L0.59 1.42 0.54 0.05Q1.17-0.49 1.71-0.95 2.25-1.42 2.66-2.29 3.08-3.17 3.34-4.66 3.61-6.15 3.71-8.69L3.71-8.69Q3.91-13.77 4.1-18.63 4.3-23.49 3.66-27.64ZM7.81-23.58L7.81-23.58Q7.71-22.22 8.18-20.53 8.64-18.85 9.59-17.31 10.55-15.77 11.94-14.65 13.33-13.53 15.09-13.38L15.09-13.38Q16.6-13.23 17.72-13.87 18.85-14.5 19.65-15.58 20.46-16.65 21-18.02 21.53-19.38 21.83-20.78 22.12-22.17 22.24-23.41 22.36-24.66 22.41-25.49L22.41-25.49Q22.41-26.86 22.12-28.39 21.83-29.93 21.17-31.25 20.51-32.57 19.51-33.45 18.51-34.33 17.19-34.42L17.19-34.42Q15.43-34.47 13.79-33.42 12.16-32.37 10.89-30.76 9.62-29.15 8.79-27.22 7.96-25.29 7.81-23.58ZM50.58 0.83L50.73 1.86Q49.41 1.46 47.56 1.44 45.7 1.42 43.77 1.66 41.84 1.9 40.11 2.39 38.38 2.88 37.35 3.52L37.35 3.52 37.01 2.49Q38.23 1.46 39.01 0.49 39.79-0.49 40.28-1.61 40.77-2.73 40.96-4.1 41.16-5.47 41.26-7.37L41.26-7.37Q41.31-8.35 41.31-10.4 41.31-12.45 41.21-14.99L41.21-14.99Q39.4-14.79 38.01-14.65 36.62-14.5 35.28-14.26 33.93-14.01 32.49-13.67 31.05-13.33 29.1-12.79L29.1-12.79 28.27-16.85Q29.1-17.63 29.81-18.43 30.52-19.24 31.32-20.48 32.13-21.73 33.15-23.63 34.18-25.54 35.59-28.56L35.59-28.56Q37.01-31.59 37.84-33.59 38.67-35.6 39.11-36.87 39.55-38.13 39.65-38.79 39.74-39.45 39.65-39.75L39.65-39.75Q40.62-39.5 41.5-39.36 42.38-39.21 43.06-39.11L43.06-39.11Q43.85-38.96 44.53-38.92L44.53-38.92Q44.38-36.28 44.36-33.69 44.33-31.1 44.33-29.05L44.33-29.05Q44.33-26.61 44.43-24.41L44.43-24.41Q44.38-22.61 44.53-20.78 44.68-18.95 44.77-17.19L44.77-17.19Q45.02-17.19 45.16-17.21 45.31-17.24 45.51-17.24L45.51-17.24Q47.21-17.29 48.26-17.87 49.31-18.46 49.85-19.26 50.39-20.07 50.58-20.97 50.78-21.88 50.78-22.56L50.78-22.56 51.76-22.51Q51.66-21.63 51.56-20.29 51.46-18.95 51.46-17.38 51.46-15.82 51.61-14.09 51.76-12.35 52.15-10.69L52.15-10.69 51.12-10.5Q50.78-11.87 50.44-12.84 50.1-13.82 49.48-14.4 48.87-14.99 47.8-15.21 46.73-15.43 44.92-15.33L44.92-15.33Q45.16-12.84 45.36-10.72 45.55-8.59 45.7-7.13L45.7-7.13Q45.9-4.79 46.16-3.42 46.43-2.05 46.95-1.25 47.46-0.44 48.31 0 49.17 0.44 50.58 0.83L50.58 0.83ZM33.64-16.26L33.64-16.26Q35.64-16.5 37.47-16.7 39.3-16.89 41.21-16.99L41.21-16.99Q41.16-19.19 41.09-21.46 41.01-23.73 40.96-25.9 40.92-28.08 40.84-29.98 40.77-31.88 40.72-33.35L40.72-33.35Q39.89-31.54 38.84-29.25 37.79-26.95 36.81-24.61 35.84-22.27 34.98-20.07 34.13-17.87 33.64-16.26ZM75.97-21.04L75.97-21.04Q75.92-20.21 75.8-19.63 75.68-19.04 75.63-18.58 75.58-18.12 75.68-17.72 75.78-17.33 76.22-16.85L76.22-16.85Q74.9-17.24 73.82-17.41 72.75-17.58 71.92-17.68L71.92-17.68Q70.99-17.72 70.26-17.68L70.26-17.68Q70.75-18.36 70.92-19.19 71.09-20.02 71.19-21.24L71.19-21.24Q71.24-22.12 71.09-23.05 70.94-23.97 70.11-24.22L70.11-24.22Q69.77-24.27 69.38-24.27 68.99-24.27 68.5-24.05 68.01-23.83 67.38-23.34 66.74-22.85 65.96-21.92L65.96-21.92Q64.84-20.61 63.96-19.12 63.08-17.63 62.45-16.16 61.81-14.7 61.45-13.4 61.08-12.11 61.03-11.18L61.03-11.18Q61.03-11.04 60.98-10.99L60.98-10.99Q61.08-9.08 61.23-7.42 61.37-5.76 61.52-4.59L61.52-4.59Q61.66-3.47 61.93-2.73 62.2-2 62.54-1.54 62.89-1.07 63.28-0.78 63.67-0.49 64.01-0.24L64.01-0.24 64.11 0.78Q63.42 0.49 62.15 0.37 60.88 0.24 59.44 0.34 58 0.44 56.54 0.78 55.07 1.12 54.05 1.71L54.05 1.71 53.9 0.59Q55.27 0.05 56.42-1.44 57.56-2.93 57.86-6.1L57.86-6.1Q58-7.67 58.17-9.33 58.34-10.99 58.39-12.7 58.44-14.4 58.34-16.21 58.25-18.02 57.81-19.92L57.81-19.92Q57.42-21.29 56.93-22.46L56.93-22.46Q56.54-23.44 55.93-24.29 55.32-25.15 54.58-25.34L54.58-25.34 54.49-26.46Q55.07-26.37 55.98-26.27 56.88-26.17 57.91-26.1 58.93-26.03 60-26.03 61.08-26.03 62.06-26.12L62.06-26.12Q61.86-25.24 61.54-22.85 61.23-20.46 61.03-17.48L61.03-17.48Q61.66-18.95 62.69-20.75 63.72-22.56 65.08-24.07 66.45-25.59 68.16-26.54 69.87-27.49 71.92-27.29L71.92-27.29Q73.14-27.15 73.95-26.46 74.75-25.78 75.21-24.85 75.68-23.93 75.85-22.9 76.02-21.88 75.97-21.04ZM88.81-1.61L88.81-1.61Q89.93-1.61 90.91-2.39 91.89-3.17 92.28-5.03L92.28-5.03 93.3-4.64Q93.16-3.47 92.38-2.27 91.59-1.07 90.37-0.24 89.15 0.59 87.61 0.83 86.08 1.07 84.47 0.34L84.47 0.34Q82.71-0.49 81.93-1.81 81.14-3.13 80.95-4.86 80.75-6.59 80.9-8.62 81.05-10.64 81.05-12.84L81.05-12.84Q81.05-14.11 81.02-15.84 81-17.58 80.93-19.53 80.85-21.48 80.71-23.56 80.56-25.63 80.41-27.64L80.41-27.64Q78.75-27.44 77.26-27.17 75.77-26.9 74.75-26.51L74.75-26.51Q74.7-26.95 74.72-27.2 74.75-27.44 74.77-27.66 74.8-27.88 74.8-28.15 74.8-28.42 74.7-28.91L74.7-28.91Q75.87-29 77.31-29.1 78.75-29.2 80.27-29.3L80.27-29.3Q80.22-29.98 80.17-30.64 80.12-31.3 80.02-31.93L80.02-31.93Q79.78-34.23 79.12-35.6 78.46-36.96 77.68-37.7 76.9-38.43 76.21-38.7 75.53-38.96 75.19-39.06L75.19-39.06 75.33-39.99Q76.26-39.6 77.63-39.48 79-39.36 80.49-39.48 81.97-39.6 83.42-39.94 84.86-40.28 85.93-40.82L85.93-40.82Q85.44-39.45 85.08-36.47 84.71-33.5 84.47-29.54L84.47-29.54Q87-29.69 88.13-29.93L88.13-29.93Q87.88-29.64 87.88-28.98 87.88-28.32 88.03-27.78L88.03-27.78Q87.2-27.88 86.27-27.91 85.34-27.93 84.37-27.93L84.37-27.93Q84.22-25.1 84.17-22.02 84.12-18.95 84.25-15.94 84.37-12.94 84.64-10.08 84.9-7.23 85.34-4.83L85.34-4.83Q85.73-3.13 86.71-2.39 87.69-1.66 88.81-1.61ZM98.53-17.58L98.53-17.58Q99.21-19.19 100.21-20.73 101.21-22.27 102.5-23.44 103.8-24.61 105.31-25.22 106.83-25.83 108.53-25.49L108.53-25.49Q110.49-25.15 111.64-23.61 112.78-22.07 113.34-20.02 113.91-17.97 114-15.7 114.1-13.43 114.05-11.62L114.05-11.62Q113.95-9.77 113.83-8.2 113.71-6.64 113.54-5.22 113.37-3.81 113.17-2.39 112.98-0.98 112.78 0.54L112.78 0.54Q112.54 2.64 113.15 3.69 113.76 4.74 114.64 4.88 115.52 5.03 116.37 4.35 117.23 3.66 117.52 2.34L117.52 2.34 118.3 2.69Q118.2 3.56 117.84 4.39 117.47 5.22 116.81 5.79 116.15 6.35 115.22 6.54 114.3 6.74 113.12 6.4L113.12 6.4Q112 6.05 111.24 5.42 110.49 4.79 110.1 3.61 109.71 2.44 109.63 0.59 109.56-1.27 109.8-4.05L109.8-4.05Q110-5.91 110.17-7.98 110.34-10.06 110.39-12.08 110.44-14.11 110.27-15.97 110.1-17.82 109.54-19.21 108.97-20.61 107.97-21.44 106.97-22.27 105.36-22.27L105.36-22.27Q104.04-22.27 102.85-21.19 101.65-20.12 100.77-18.36 99.89-16.6 99.38-14.31 98.87-12.01 98.87-9.57L98.87-9.57 98.87-9.62Q98.87-9.38 98.89-9.23 98.92-9.08 98.92-8.89L98.92-8.89Q99.16-6.4 99.53-4.93 99.89-3.47 100.48-2.59 101.06-1.71 101.92-1.17 102.77-0.63 103.95 0L103.95 0 103.7 0.88Q102.77 0.59 101.09 0.2 99.4-0.2 97.5-0.46 95.6-0.73 93.79-0.78 91.98-0.83 90.81-0.39L90.81-0.39 90.42-1.56Q91.05-1.81 91.81-2.05 92.57-2.29 93.25-3.08 93.94-3.86 94.42-5.44 94.91-7.03 95.06-10.01L95.06-10.01Q95.2-12.94 95.28-16.31 95.35-19.68 95.3-22.95 95.25-26.22 95.08-29.17 94.91-32.13 94.57-34.28L94.57-34.28Q94.28-35.94 93.74-36.84 93.2-37.74 92.54-38.21 91.88-38.67 91.23-38.82 90.57-38.96 90.08-39.11L90.08-39.11 90.03-39.89Q93.01-39.65 96.11-39.87 99.21-40.09 102.09-41.36L102.09-41.36 102.19-40.53Q101.65-39.99 101.14-39.55 100.62-39.11 100.19-38.38 99.75-37.65 99.43-36.47 99.11-35.3 98.96-33.35L98.96-33.35Q98.87-32.08 98.79-30.27 98.72-28.47 98.65-26.39 98.57-24.32 98.55-22.05 98.53-19.78 98.53-17.58Z" opacity="1" transform="matrix(1,0,0,1,0,0)" fill="#a020f0" class="wordmark-text-0" data-fill-palette-color="primary" id="text-0"></path></svg></g></svg></g></svg></g></svg></g><g transform="matrix(1,0,0,1,36.672,0)"><svg viewBox="0 0 118.656 85.31273783133798" height="85.31273783133798" width="118.656"><g><svg xmlns="http://www.w3.org/2000/svg" xmlns:xlink="http://www.w3.org/1999/xlink" version="1.1" x="0" y="0" viewBox="9.666 21.00033765356684 80.668 57.999662346433155" enable-background="new 0 0 100 100" xml:space="preserve" height="85.31273783133798" width="118.656" class="icon-icon-0" data-fill-palette-color="accent" id="icon-0"><path d="M32.951 28.716c-0.781-0.781-2.047-0.781-2.828 0l-19.871 19.87C9.877 48.961 9.666 49.47 9.666 50s0.211 1.039 0.586 1.414l19.871 19.87c0.391 0.391 0.902 0.586 1.414 0.586s1.023-0.195 1.414-0.586c0.781-0.781 0.781-2.047 0-2.828L14.494 50l18.457-18.456C33.732 30.763 33.732 29.497 32.951 28.716zM89.748 48.586l-19.871-19.87c-0.781-0.781-2.047-0.781-2.828 0s-0.781 2.047 0 2.828L85.506 50 67.049 68.456c-0.781 0.781-0.781 2.047 0 2.828 0.391 0.391 0.902 0.586 1.414 0.586s1.023-0.195 1.414-0.586l19.871-19.87c0.375-0.375 0.586-0.884 0.586-1.414S90.123 48.961 89.748 48.586zM63.208 21.182c-1.002-0.458-2.191-0.021-2.651 0.985l-24.75 54c-0.46 1.004-0.02 2.19 0.985 2.651C37.062 78.941 37.345 79 37.624 79c0.758 0 1.482-0.433 1.819-1.167l24.75-54C64.653 22.829 64.213 21.643 63.208 21.182z" fill="#a020f0" data-fill-palette-color="accent"></path></svg></g></svg></g><g></g></svg></g></svg></g></svg></g></svg></g><defs></defs></svg><rect width="320" height="360" fill="none" stroke="none" visibility="hidden"></rect></g></svg></g></svg>