<svg xmlns="http://www.w3.org/2000/svg" version="1.1" xmlns:xlink="http://www.w3.org/1999/xlink" xmlns:svgjs="http://svgjs.dev/svgjs" width="1500" height="393" viewBox="0 0 1500 393"><g transform="matrix(1,0,0,1,-0.9090909090911055,-0.043484762081618555)"><svg viewBox="0 0 396 104" data-background-color="#ebe3d6" preserveAspectRatio="xMidYMid meet" height="393" width="1500" xmlns="http://www.w3.org/2000/svg" xmlns:xlink="http://www.w3.org/1999/xlink"><g id="tight-bounds" transform="matrix(1,0,0,1,0.24000000000003752,0.011507417955442634)"><svg viewBox="0 0 395.5199999999999 103.97698516408911" height="103.97698516408911" width="395.5199999999999"><g><svg viewBox="0 0 668.516803679471 175.7442399325562" height="103.97698516408911" width="395.5199999999999"><g transform="matrix(1,0,0,1,272.996803679471,27.37159539056728)"><svg viewBox="0 0 395.52 121.00104915142165" height="121.00104915142165" width="395.52"><g id="textblocktransform"><svg viewBox="0 0 395.52 121.00104915142165" height="121.00104915142165" width="395.52" id="textblock"><g><svg viewBox="0 0 395.52 121.00104915142165" height="121.00104915142165" width="395.52"><g transform="matrix(1,0,0,1,0,0)"><svg width="395.52" viewBox="4.95 -34.1 113.42 34.7" height="121.00104915142165" data-palette-color="#505050"><path d="M8.9 0L4.95 0 4.95-31.4 15.05-31.4Q20.23-31.4 22.96-28.79 25.7-26.18 25.7-21.7L25.7-21.7Q25.7-17.28 22.96-14.69 20.23-12.1 15.05-12.1L15.05-12.1 8.9-12.1 8.9 0ZM8.9-28.05L8.9-15.5 15.05-15.5Q18.32-15.5 20.01-17.18 21.7-18.85 21.7-21.7L21.7-21.7Q21.7-24.6 20.01-26.33 18.32-28.05 15.05-28.05L15.05-28.05 8.9-28.05ZM28.97-10.65L45.42-31.85 49.07-31.85 49.07-10.95 54.52-10.95 54.52-7.65 49.07-7.65 49.07 0 45.22 0 45.22-7.65 28.97-7.65 28.97-10.65ZM45.37-10.65L45.37-25.7 33.62-10.65 45.37-10.65ZM64.55 0L60.64 0 60.64-23.95 64.55-23.95 64.55 0ZM64.55-10.8L63.34-10.8Q63.34-15.35 64.22-18.36 65.09-21.38 66.78-22.86 68.47-24.35 70.89-24.35L70.89-24.35Q71.69-24.35 72.36-24.24 73.02-24.13 73.69-23.9L73.69-23.9 73.44-20.05Q72.75-20.28 71.92-20.44 71.09-20.6 70.44-20.6L70.44-20.6Q68.32-20.6 67.02-19.39 65.72-18.18 65.13-15.98 64.55-13.78 64.55-10.8L64.55-10.8ZM86.07 0.6L86.07 0.6Q84.12 0.6 82.57-0.15 81.02-0.9 80.12-2.4 79.22-3.9 79.22-6.15L79.22-6.15 79.22-30.55 83.07-30.55 83.07-6.25Q83.07-2.55 86.52-2.55L86.52-2.55Q87.54-2.55 88.51-2.78 89.47-3 90.67-3.45L90.67-3.45 91.22-0.65Q89.94-0.1 88.68 0.25 87.42 0.6 86.07 0.6ZM90.62-21.2L75.37-21.2 75.37-23.9 90.62-23.9 90.62-21.2ZM118.37 0L114.52 0 114.52-14.05Q114.52-17.48 112.88-19.26 111.24-21.05 108.42-21.05L108.42-21.05Q106.27-21.05 104.69-19.88 103.12-18.7 102.27-16.51 101.42-14.33 101.42-11.3L101.42-11.3 99.92-11.3Q99.92-15.48 101.02-18.43 102.12-21.38 104.23-22.94 106.34-24.5 109.37-24.5L109.37-24.5Q112.19-24.5 114.2-23.24 116.22-21.98 117.29-19.63 118.37-17.28 118.37-14.05L118.37-14.05 118.37 0ZM101.42 0L97.52 0 97.52-34.1 101.42-34.1 101.42 0Z" opacity="1" transform="matrix(1,0,0,1,0,0)" fill="#505050" class="wordmark-text-0" data-fill-palette-color="primary" id="text-0"></path></svg></g></svg></g></svg></g></svg></g><g><svg viewBox="0 0 244.43135999999998 175.7442399325562" height="175.7442399325562" width="244.43135999999998"><g><svg xmlns="http://www.w3.org/2000/svg" xmlns:xlink="http://www.w3.org/1999/xlink" version="1.1" x="0" y="0" viewBox="9.666 21.00033765356684 80.668 57.999662346433155" enable-background="new 0 0 100 100" xml:space="preserve" height="175.7442399325562" width="244.43135999999998" class="icon-icon-0" data-fill-palette-color="accent" id="icon-0"><path d="M32.951 28.716c-0.781-0.781-2.047-0.781-2.828 0l-19.871 19.87C9.877 48.961 9.666 49.47 9.666 50s0.211 1.039 0.586 1.414l19.871 19.87c0.391 0.391 0.902 0.586 1.414 0.586s1.023-0.195 1.414-0.586c0.781-0.781 0.781-2.047 0-2.828L14.494 50l18.457-18.456C33.732 30.763 33.732 29.497 32.951 28.716zM89.748 48.586l-19.871-19.87c-0.781-0.781-2.047-0.781-2.828 0s-0.781 2.047 0 2.828L85.506 50 67.049 68.456c-0.781 0.781-0.781 2.047 0 2.828 0.391 0.391 0.902 0.586 1.414 0.586s1.023-0.195 1.414-0.586l19.871-19.87c0.375-0.375 0.586-0.884 0.586-1.414S90.123 48.961 89.748 48.586zM63.208 21.182c-1.002-0.458-2.191-0.021-2.651 0.985l-24.75 54c-0.46 1.004-0.02 2.19 0.985 2.651C37.062 78.941 37.345 79 37.624 79c0.758 0 1.482-0.433 1.819-1.167l24.75-54C64.653 22.829 64.213 21.643 63.208 21.182z" fill="#f39361" data-fill-palette-color="accent"></path></svg></g></svg></g></svg></g><defs></defs></svg><rect width="395.5199999999999" height="103.97698516408911" fill="none" stroke="none" visibility="hidden"></rect></g></svg></g></svg>